<svg xmlns="http://www.w3.org/2000/svg" width="150.104" height="150.104" viewBox="0 0 140.722 140.722"><g transform="translate(-261.475 -384.266)"><circle cx="331.837" cy="454.627" r="65.176" fill="#a7ac93" fill-rule="evenodd"/><text style="line-height:125%;-inkscape-font-specification:'Arial Rounded MT Bold, Bold';text-align:start" x="288.209" y="446.718" transform="scale(.93748 1.0667)" font-weight="700" font-size="57.321" font-family="Arial Rounded MT Bold" letter-spacing="0" word-spacing="0" fill="#fff" fill-opacity=".227"><tspan x="288.209" y="446.718">WEB</tspan></text><text style="line-height:125%;-inkscape-font-specification:'Bauhaus 93, Normal';text-align:start" x="142.378" y="532.307" transform="rotate(-15)" font-weight="400" font-size="29.863" font-family="Bauhaus 93" letter-spacing="0" word-spacing="0" fill="#458371"><tspan x="142.378" y="532.307">Dummies</tspan></text><path d="M331.836 384.266a70.361 70.361 0 00-70.36 70.361 70.361 70.361 0 0070.36 70.361 70.361 70.361 0 0070.362-70.36 70.361 70.361 0 00-70.362-70.362zm0 3.012a67.35 67.35 0 0167.35 67.35 67.35 67.35 0 01-67.35 67.349 67.35 67.35 0 01-67.349-67.35 67.35 67.35 0 0167.35-67.349z" fill="#458371" fill-rule="evenodd"/></g></svg>